<svg xmlns="http://www.w3.org/2000/svg" viewBox="0 0 24 24" fill="white" width="24" height="24">
  <path d="M12 0C5.37 0 0 5.37 0 12c0 5.3 3.43 9.8 8.2 11.37.6.12.82-.26.82-.58 0-.28-.02-1-.03-1.96-3.34.72-4.04-1.61-4.04-1.61C4.66 18.1 3.8 17.7 3.8 17.7c-1.08-.74.08-.73.08-.73 1.2.08 1.83 1.23 1.83 1.23 1.07 1.83 2.81 1.3 3.5 1 .11-.76.42-1.28.76-1.58-2.67-.3-5.47-1.34-5.47-5.94 0-1.31.47-2.38 1.24-3.22-.14-.3-.54-1.52.1-3.17 0 0 1-.32 3.3 1.23A11.5 11.5 0 0 1 12 5.88c1.03 0 2.06.14 3.04.41 2.27-1.55 3.27-1.23 3.27-1.23.65 1.65.24 2.87.12 3.17.77.84 1.24 1.91 1.24 3.22 0 4.61-2.81 5.63-5.48 5.93.43.37.81 1.11.81 2.24 0 1.62-.02 2.92-.02 3.32 0 .32.22.7.83.58C20.57 21.77 24 17.27 24 12c0-6.63-5.37-12-12-12z"/>
</svg>
